<svg xmlns="http://www.w3.org/2000/svg" version="1.1" xmlns:xlink="http://www.w3.org/1999/xlink" xmlns:svgjs="http://svgjs.dev/svgjs" width="1000" height="1125" viewBox="0 0 1000 1125"><g transform="matrix(1,0,0,1,0,0)"><svg viewBox="0 0 320 360" data-background-color="#ffffff" preserveAspectRatio="xMidYMid meet" height="1125" width="1000" xmlns="http://www.w3.org/2000/svg" xmlns:xlink="http://www.w3.org/1999/xlink"><g id="tight-bounds" transform="matrix(1,0,0,1,0,0)"><svg viewBox="0 0 320 360" height="360" width="320"><g><svg></svg></g><g><svg viewBox="0 0 320 360" height="360" width="320"><g><path xmlns="http://www.w3.org/2000/svg" d="M320 187.111c0-45.764-20.238-86.866-52.203-114.908-28.043-31.964-69.145-52.203-114.908-52.203-84.302 0-152.889 68.587-152.889 152.889 0 45.753 20.231 86.848 52.185 114.891 28.043 31.975 69.152 52.22 114.926 52.22 0.299 0 0.59-0.021 0.889-0.021 0.299 0 0.59 0.021 0.889 0.021 83.456 0 151.111-67.655 151.111-151.111 0-0.299-0.021-0.59-0.021-0.889 0-0.299 0.021-0.59 0.021-0.889zM59.833 263.097c-15.093-21.255-24.071-47.143-24.256-75.097 0.48-72.928 59.492-131.943 132.423-132.423 27.954 0.185 53.845 9.163 75.097 24.256 24.366 23.627 39.57 56.64 39.57 93.056 0 71.559-58.219 129.778-129.778 129.778-36.416 0-69.429-15.204-93.056-39.57zM3.556 172.889c0-82.343 66.99-149.333 149.333-149.333 35.051 0 67.292 12.167 92.8 32.462-22.98-13.824-49.863-21.796-78.578-21.796-84.302 0-152.889 68.587-152.889 152.889 0 28.708 7.968 55.584 21.785 78.56-20.288-25.5-32.452-57.739-32.451-92.782zM167.111 318.667c-35.84 0-68.363-14.418-92.107-37.743 21.952 15.89 48.864 25.298 77.885 25.298 73.522 0 133.333-59.812 133.333-133.333 0-29.02-9.408-55.932-25.298-77.885 23.324 23.744 37.742 56.267 37.743 92.107 0 72.54-59.015 131.556-131.556 131.556z" fill="#fb1515" fill-rule="nonzero" stroke="none" stroke-width="1" stroke-linecap="butt" stroke-linejoin="miter" stroke-miterlimit="10" stroke-dasharray="" stroke-dashoffset="0" font-family="none" font-weight="none" font-size="none" text-anchor="none" style="mix-blend-mode: normal" data-fill-palette-color="tertiary"></path></g><g transform="matrix(1,0,0,1,98.84044943820226,99)"><svg viewBox="0 0 122.3191011235955 162" height="162" width="122.3191011235955"><g><svg viewBox="0 0 122.3191011235955 162" height="162" width="122.3191011235955"><g><svg viewBox="0 0 122.3191011235955 162" height="162" width="122.3191011235955"><g><svg viewBox="0 0 122.3191011235955 162" height="162" width="122.3191011235955"><g id="textblocktransform"><svg viewBox="0 0 122.3191011235955 162" height="162" width="122.3191011235955" id="textblock"><g><svg viewBox="0 0 122.3191011235955 162" height="162" width="122.3191011235955"><g transform="matrix(1,0,0,1,0,0)"><svg width="122.3191011235955" viewBox="0.2800000011920929 -30.959999084472656 26.8799991607666 35.599998474121094" height="162" data-palette-color="#ec0b0b"><path d="M1.76-19.12L1.76-19.12Q0.28-19.12 0.28-21.2 0.28-23.28 2.44-25.84L2.44-25.84Q6.04-30.16 12.44-30.84L12.44-30.84 14.64-30.96Q21.92-30.96 25.2-25.16L25.2-25.16Q27.16-21.6 27.16-16.96L27.16-16.96Q27.16-15.04 26.84-12.92L26.84-12.92Q25.68-5.8 21.32-0.84L21.32-0.84Q16.52 4.64 10.14 4.64 3.76 4.64 2.04 1.08L2.04 1.08Q1.52-0.04 1.52-1.3 1.52-2.56 2.2-3.96L2.2-3.96Q3.52-6.52 5.8-6.52L5.8-6.52Q6-6.52 6.06-6.3 6.12-6.08 6.02-5.84 5.92-5.6 5.72-5.6L5.72-5.6Q4.36-5.6 3.36-3.84L3.36-3.84Q2.72-2.6 2.72-1.56 2.72-0.52 3.12 0.36L3.12 0.36Q4.4 3.08 9.24 3.08L9.24 3.08Q14.72 3.08 19.16-2.52L19.16-2.52Q23.16-7.56 24.32-14.36L24.32-14.36Q24.72-16.56 24.72-18.52L24.72-18.52Q24.72-22.88 22.76-25.88L22.76-25.88Q20.16-29.92 14.6-29.92L14.6-29.92Q7.64-29.92 4.16-25.24L4.16-25.24Q2.4-22.84 2.4-20.76L2.4-20.76Q2.4-19.92 2.76-19.92L2.76-19.92Q2.52-19.12 1.76-19.12ZM7.52-3.96L7.52-3.96Q7.52-10.04 8.6-15.78 9.68-21.52 11.26-24.86 12.84-28.2 14.32-28.2L14.32-28.2Q14.96-28.2 14.96-27.56L14.96-27.56Q13.16-23.84 11.8-17.64L11.8-17.64Q9.28-6.32 9.28-1.28L9.28-1.28Q9.28-0.76 8.72-0.76L8.72-0.76Q7.52-0.76 7.52-3.96Z" opacity="1" transform="matrix(1,0,0,1,0,0)" fill="#ec0b0b" class="wordmark-text-0" data-fill-palette-color="primary" id="text-0"></path></svg></g></svg></g></svg></g></svg></g><g></g></svg></g></svg></g></svg></g></svg></g><defs></defs></svg><rect width="320" height="360" fill="none" stroke="none" visibility="hidden"></rect></g></svg></g></svg>